<?xml version="1.0" encoding="UTF-8" standalone="no"?>
<svg
   xmlns:dc="http://purl.org/dc/elements/1.1/"
   xmlns:cc="http://creativecommons.org/ns#"
   xmlns:rdf="http://www.w3.org/1999/02/22-rdf-syntax-ns#"
   xmlns:svg="http://www.w3.org/2000/svg"
   xmlns="http://www.w3.org/2000/svg"
   xmlns:sodipodi="http://sodipodi.sourceforge.net/DTD/sodipodi-0.dtd"
   xmlns:inkscape="http://www.inkscape.org/namespaces/inkscape"
   xml:space="preserve"
   width="75.3264mm"
   height="68.6872mm"
   version="1.1"
   style="shape-rendering:geometricPrecision; text-rendering:geometricPrecision; image-rendering:optimizeQuality; fill-rule:evenodd; clip-rule:evenodd"
   viewBox="0 0 7338 6691"
   id="svg21"
   sodipodi:docname="logo-f2f.svg"
   inkscape:version="1.0.2 (e86c870879, 2021-01-15)"><metadata
   id="metadata25"><rdf:RDF><cc:Work
       rdf:about=""><dc:format>image/svg+xml</dc:format><dc:type
         rdf:resource="http://purl.org/dc/dcmitype/StillImage" /></cc:Work></rdf:RDF></metadata><sodipodi:namedview
   pagecolor="#ffffff"
   bordercolor="#666666"
   borderopacity="1"
   objecttolerance="10"
   gridtolerance="10"
   guidetolerance="10"
   inkscape:pageopacity="0"
   inkscape:pageshadow="2"
   inkscape:window-width="2223"
   inkscape:window-height="1547"
   id="namedview23"
   showgrid="false"
   inkscape:zoom="2.8235184"
   inkscape:cx="140.04701"
   inkscape:cy="129.80259"
   inkscape:window-x="70"
   inkscape:window-y="273"
   inkscape:window-maximized="0"
   inkscape:current-layer="Warstwa_x0020_1" />
 <defs
   id="defs4">
  <style
   type="text/css"
   id="style2">
   <![CDATA[
    .fil1 {fill:#E5175B}
    .fil2 {fill:#13477D}
    .fil0 {fill:#13477D}
   ]]>
  </style>
 
   
   
   
   
   
  </defs>
 <g
   id="Warstwa_x0020_1">
  <metadata
   id="CorelCorpID_0Corel-Layer" />
  <g
   id="g11">
    <path
   class="fil0"
   d="M 68,68 H 7270 V 6623 H 68 Z m 7202,6555 v 0 l 68,68 H 0 V 0 0 h 7338 v 6691 0 z"
   id="path9" />
   </g><path
   class="fil1"
   d="m 223,6691 c 34,-390 104,-1169 117,-1252 43,-269 124,-536 292,-704 88,-86 192,-141 311,-170 115,-27 324,35 439,63 167,40 380,89 542,10 70,-35 122,-89 158,-157 14,-25 25,-45 34,-72 15,-45 17,-91 3,-137 -15,-51 -46,-100 -70,-148 -15,-30 -33,-71 -32,-105 1,-11 1,-33 13,-39 5,-3 11,-4 16,-5 34,-10 64,-13 94,-36 14,-9 25,-21 34,-35 32,-52 14,-110 -5,-163 -4,-13 -13,-34 -16,-49 7,-14 39,-50 47,-63 7,-10 13,-20 19,-32 18,-38 22,-78 12,-119 -5,-20 -13,-39 -24,-56 -30,-51 -74,-81 -115,-121 -29,-29 -48,-55 -48,-97 -4,-167 156,-169 175,-281 6,-39 -10,-75 -35,-104 -125,-142 -249,-288 -356,-445 -62,-89 -63,-281 -65,-388 -3,-97 -4,-199 -20,-296 C 1665,1239 1299,875 925,644 617,454 351,361 0,325 v 6366 z"
   id="path13" /><path
   class="fil2"
   d="m 7338,0 h -753 c -13,10 -25,19 -37,29 -287,235 -468,517 -559,876 -10,41 -19,83 -27,125 -16,84 -12,163 0,247 10,66 25,133 30,199 2,39 0,77 -9,115 -47,193 -136,315 -287,440 -87,71 -178,135 -261,211 -102,92 -181,193 -242,317 -26,54 -35,114 -6,169 37,70 120,100 191,122 22,7 113,33 127,48 24,39 29,74 13,117 -15,42 -46,81 -56,124 -17,73 47,129 96,172 7,7 25,22 38,35 0,0 0,0 -1,1 -56,15 -104,37 -117,101 -7,37 -4,73 16,105 22,35 57,52 77,84 31,52 23,145 16,201 -5,38 -41,89 -63,119 -37,53 -98,126 -113,189 -29,134 -38,289 63,396 96,102 260,125 392,140 160,18 322,27 478,70 163,45 300,124 400,264 93,130 141,294 165,459 6,47 11,95 14,141 2,31 32,674 51,1075 h 364 z"
   id="path15" /><path
   class="fil1"
   d="m 2702,1074 c 0,-64 30,-94 86,-94 29,0 56,8 76,23 l 50,-137 c -35,-25 -91,-35 -144,-35 -162,0 -252,95 -252,242 v 29 h -101 v 145 h 101 v 492 h 189 v -492 h 162 v -145 h -167 z m 547,4 c -105,0 -210,28 -281,78 l 67,132 c 48,-37 119,-60 188,-60 102,0 150,47 150,128 h -150 c -198,0 -280,80 -280,195 0,113 91,198 244,198 96,0 163,-32 199,-91 v 81 h 176 v -372 c 0,-197 -115,-289 -313,-289 z m -15,544 c -67,0 -106,-32 -106,-79 0,-44 27,-77 116,-77 h 129 v 67 c -21,59 -76,89 -139,89 z m 856,127 c 137,0 244,-61 292,-165 l -147,-80 c -35,63 -87,90 -147,90 -95,0 -170,-67 -170,-181 0,-114 75,-180 170,-180 60,0 112,28 147,89 l 147,-78 c -48,-107 -155,-166 -292,-166 -212,0 -364,139 -364,335 0,196 152,336 364,336 z m 1065,-333 c 0,-210 -148,-338 -339,-338 -199,0 -348,140 -348,335 0,194 146,336 372,336 117,0 208,-37 269,-106 l -101,-109 c -45,43 -94,63 -163,63 -100,0 -169,-49 -187,-131 h 493 c 1,-15 4,-36 4,-50 z m -338,-195 c 85,0 146,53 160,135 h -321 c 13,-83 75,-135 161,-135 z m -1058,1778 195,-184 c 119,-110 142,-185 142,-268 0,-154 -126,-251 -315,-251 -152,0 -271,62 -337,158 l 143,92 c 42,-57 103,-85 176,-85 90,0 136,39 136,106 0,41 -14,84 -89,156 l -327,309 v 127 h 641 v -160 z m -1057,915 c 0,-65 30,-95 86,-95 29,0 56,9 76,23 l 50,-137 c -35,-24 -91,-35 -144,-35 -162,0 -252,96 -252,242 v 30 h -101 v 145 h 101 v 492 h 189 v -492 h 162 v -145 h -167 z m 547,3 c -105,0 -210,28 -281,79 l 67,132 c 48,-37 119,-61 188,-61 102,0 150,48 150,129 h -150 c -198,0 -280,80 -280,195 0,113 91,197 244,197 96,0 163,-31 199,-91 v 82 h 176 v -372 c 0,-198 -115,-290 -313,-290 z m -15,544 c -67,0 -106,-31 -106,-79 0,-43 27,-76 116,-76 h 129 v 67 c -21,59 -76,88 -139,88 z m 856,127 c 137,0 244,-60 292,-164 l -147,-80 c -35,63 -87,89 -147,89 -95,0 -170,-66 -170,-180 0,-114 75,-181 170,-181 60,0 112,28 147,90 l 147,-79 c -48,-106 -155,-166 -292,-166 -212,0 -364,140 -364,336 0,196 152,335 364,335 z m 1065,-333 c 0,-209 -148,-338 -339,-338 -199,0 -348,141 -348,336 0,194 146,335 372,335 117,0 208,-36 269,-105 l -101,-109 c -45,42 -94,63 -163,63 -100,0 -169,-50 -187,-131 h 493 c 1,-16 4,-36 4,-51 z m -338,-195 c 85,0 146,54 160,136 h -321 c 13,-84 75,-136 161,-136 z"
   id="path17" />
 </g>
</svg>
