<?xml version="1.0" encoding="UTF-8"?>
<!DOCTYPE svg PUBLIC "-//W3C//DTD SVG 1.1//EN" "http://www.w3.org/Graphics/SVG/1.1/DTD/svg11.dtd">
<!-- Creator: CorelDRAW X7 -->
<svg xmlns="http://www.w3.org/2000/svg" xml:space="preserve" width="75.3264mm" height="68.6872mm" version="1.1" style="shape-rendering:geometricPrecision; text-rendering:geometricPrecision; image-rendering:optimizeQuality; fill-rule:evenodd; clip-rule:evenodd"
viewBox="0 0 7338 6691"
 xmlns:xlink="http://www.w3.org/1999/xlink">
 <defs>
  <style type="text/css">
   <![CDATA[
    .fil1 {fill:#E5175B}
    .fil2 {fill:#13477D}
    .fil0 {fill:#13477D}
   ]]>
  </style>
 </defs>
 <g id="Warstwa_x0020_1">
  <metadata id="CorelCorpID_0Corel-Layer"/>
  <g id="_873006768">
   <path class="fil0" d="M685 5741c85,0 124,-42 124,-91 0,-118 -194,-69 -194,-147 0,-28 24,-51 78,-51 29,0 60,8 88,26l15 -37c-26,-18 -65,-28 -103,-28 -84,0 -122,42 -122,92 0,119 194,69 194,148 0,27 -24,49 -80,49 -41,0 -82,-16 -105,-37l-17 36c25,23 73,40 122,40zm422 -44l201 -249 0 -31 -259 0 0 39 198 0 -201 250 0 31 268 0 0 -40 -207 0zm693 40l54 0 -146 -176 137 -144 -52 0 -174 179 0 -179 -46 0 0 320 46 0 0 -83 58 -59 123 142zm433 4c98,0 170,-70 170,-164 0,-94 -72,-164 -170,-164 -98,0 -170,70 -170,164 0,94 72,164 170,164zm0 -41c-72,0 -125,-52 -125,-123 0,-71 53,-123 125,-123 71,0 124,52 124,123 0,71 -53,123 -124,123zm488 -3l0 -129 71 -54 -20 -25 -51 38 0 -110 -46 0 0 145 -48 36 20 26 28 -21 0 134 219 0 0 -40 -173 0zm664 40l49 0 -146 -320 -45 0 -146 320 48 0 35 -80 170 0 35 80zm-189 -117l69 -157 69 157 -138 0zm894 121c65,0 100,-35 100,-107l0 -217 -161 0 0 39 116 0 0 180c0,43 -19,65 -55,65 -27,0 -50,-13 -67,-38l-27 32c21,29 56,46 94,46zm626 65c-8,5 -19,8 -29,8 -16,0 -28,-9 -28,-24 0,-18 15,-35 55,-53l0 -40 -187 0 0 -103 161 0 0 -39 -161 0 0 -99 180 0 0 -39 -226 0 0 320 183 0c-26,18 -36,38 -36,56 0,28 20,47 55,47 15,0 30,-4 41,-11l-8 -23zm303 -109l200 -249 0 -31 -258 0 0 39 198 0 -201 250 0 31 267 0 0 -40 -206 0zm716 -280l-46 0 -103 169 -102 -169 -49 0 127 208 0 112 45 0 0 -111 128 -209zm465 320l54 0 -146 -176 137 -144 -52 0 -174 179 0 -179 -46 0 0 320 46 0 0 -83 59 -59 122 142zm527 0l48 0 -146 -320 -45 0 -145 320 47 0 35 -80 171 0 35 80zm-190 -117l70 -157 69 157 -139 0zm-5467 748l48 0 -146 -320 -45 0 -145 320 47 0 35 -80 171 0 35 80zm-190 -116l70 -157 69 157 -139 0zm713 -204l0 239 -192 -239 -37 0 0 320 45 0 0 -239 193 239 37 0 0 -320 -46 0zm562 263c-23,14 -48,20 -75,20 -73,0 -127,-52 -127,-123 0,-71 54,-123 128,-123 36,0 66,12 93,37l28 -28c-29,-33 -72,-50 -123,-50 -99,0 -172,69 -172,164 0,95 73,164 171,164 45,0 89,-14 121,-41l0 -125 -44 0 0 105zm330 57l45 0 0 -320 -45 0 0 320zm385 -39l0 -104 161 0 0 -39 -161 0 0 -98 181 0 0 -40 -227 0 0 320 233 0 0 -39 -187 0zm459 39l219 0 0 -39 -173 0 0 -281 -46 0 0 320zm560 4c85,0 124,-42 124,-91 0,-117 -194,-68 -194,-147 0,-28 23,-51 78,-51 28,0 60,8 88,26l15 -36c-27,-19 -65,-29 -103,-29 -84,0 -123,42 -123,92 0,119 194,70 194,148 0,28 -23,49 -79,49 -41,0 -82,-15 -106,-37l-17 36c26,24 74,40 123,40zm616 -4l54 0 -146 -176 137 -144 -52 0 -174 179 0 -179 -46 0 0 320 46 0 0 -82 58 -60 123 142zm300 0l46 0 0 -320 -46 0 0 320zm386 -39l0 -104 160 0 0 -39 -160 0 0 -98 180 0 0 -40 -226 0 0 320 233 0 0 -39 -187 0zm679 -18c-23,14 -48,20 -75,20 -74,0 -127,-52 -127,-123 0,-71 53,-123 128,-123 36,0 66,12 93,37l28 -28c-29,-33 -72,-50 -123,-50 -100,0 -172,69 -172,164 0,95 72,164 171,164 45,0 89,-14 121,-41l0 -125 -44 0 0 105zm474 61c98,0 170,-69 170,-164 0,-94 -72,-164 -170,-164 -98,0 -171,70 -171,164 0,94 73,164 171,164zm0 -41c-72,0 -125,-52 -125,-123 0,-71 53,-123 125,-123 71,0 124,52 124,123 0,71 -53,123 -124,123z"/>
   <g>
    <path class="fil0" d="M68 68l7202 0 0 6555 -7202 0 0 -6555zm7202 6555l0 0 68 68 -7338 0 0 -6691 0 0 7338 0 0 6691 0 0 -68 -68z"/>
   </g>
   <path class="fil1" d="M223 6691c34,-390 104,-1169 117,-1252 43,-269 124,-536 292,-704 88,-86 192,-141 311,-170 115,-27 324,35 439,63 167,40 380,89 542,10 70,-35 122,-89 158,-157 14,-25 25,-45 34,-72 15,-45 17,-91 3,-137 -15,-51 -46,-100 -70,-148 -15,-30 -33,-71 -32,-105 1,-11 1,-33 13,-39 5,-3 11,-4 16,-5 34,-10 64,-13 94,-36 14,-9 25,-21 34,-35 32,-52 14,-110 -5,-163 -4,-13 -13,-34 -16,-49 7,-14 39,-50 47,-63 7,-10 13,-20 19,-32 18,-38 22,-78 12,-119 -5,-20 -13,-39 -24,-56 -30,-51 -74,-81 -115,-121 -29,-29 -48,-55 -48,-97 -4,-167 156,-169 175,-281 6,-39 -10,-75 -35,-104 -125,-142 -249,-288 -356,-445 -62,-89 -63,-281 -65,-388 -3,-97 -4,-199 -20,-296 -78,-451 -444,-815 -818,-1046 -308,-190 -574,-283 -925,-319l0 6366 223 0z"/>
   <path class="fil2" d="M7338 0l-753 0c-13,10 -25,19 -37,29 -287,235 -468,517 -559,876 -10,41 -19,83 -27,125 -16,84 -12,163 0,247 10,66 25,133 30,199 2,39 0,77 -9,115 -47,193 -136,315 -287,440 -87,71 -178,135 -261,211 -102,92 -181,193 -242,317 -26,54 -35,114 -6,169 37,70 120,100 191,122 22,7 113,33 127,48 24,39 29,74 13,117 -15,42 -46,81 -56,124 -17,73 47,129 96,172 7,7 25,22 38,35 0,0 0,0 -1,1 -56,15 -104,37 -117,101 -7,37 -4,73 16,105 22,35 57,52 77,84 31,52 23,145 16,201 -5,38 -41,89 -63,119 -37,53 -98,126 -113,189 -29,134 -38,289 63,396 96,102 260,125 392,140 160,18 322,27 478,70 163,45 300,124 400,264 93,130 141,294 165,459 6,47 11,95 14,141 2,31 32,674 51,1075l364 0 0 -6691z"/>
   <path class="fil1" d="M2702 1074c0,-64 30,-94 86,-94 29,0 56,8 76,23l50 -137c-35,-25 -91,-35 -144,-35 -162,0 -252,95 -252,242l0 29 -101 0 0 145 101 0 0 492 189 0 0 -492 162 0 0 -145 -167 0 0 -28zm547 4c-105,0 -210,28 -281,78l67 132c48,-37 119,-60 188,-60 102,0 150,47 150,128l-150 0c-198,0 -280,80 -280,195 0,113 91,198 244,198 96,0 163,-32 199,-91l0 81 176 0 0 -372c0,-197 -115,-289 -313,-289zm-15 544c-67,0 -106,-32 -106,-79 0,-44 27,-77 116,-77l129 0 0 67c-21,59 -76,89 -139,89zm856 127c137,0 244,-61 292,-165l-147 -80c-35,63 -87,90 -147,90 -95,0 -170,-67 -170,-181 0,-114 75,-180 170,-180 60,0 112,28 147,89l147 -78c-48,-107 -155,-166 -292,-166 -212,0 -364,139 -364,335 0,196 152,336 364,336zm1065 -333c0,-210 -148,-338 -339,-338 -199,0 -348,140 -348,335 0,194 146,336 372,336 117,0 208,-37 269,-106l-101 -109c-45,43 -94,63 -163,63 -100,0 -169,-49 -187,-131l493 0c1,-15 4,-36 4,-50zm-338 -195c85,0 146,53 160,135l-321 0c13,-83 75,-135 161,-135zm-1058 1778l195 -184c119,-110 142,-185 142,-268 0,-154 -126,-251 -315,-251 -152,0 -271,62 -337,158l143 92c42,-57 103,-85 176,-85 90,0 136,39 136,106 0,41 -14,84 -89,156l-327 309 0 127 641 0 0 -160 -365 0zm-1057 915c0,-65 30,-95 86,-95 29,0 56,9 76,23l50 -137c-35,-24 -91,-35 -144,-35 -162,0 -252,96 -252,242l0 30 -101 0 0 145 101 0 0 492 189 0 0 -492 162 0 0 -145 -167 0 0 -28zm547 3c-105,0 -210,28 -281,79l67 132c48,-37 119,-61 188,-61 102,0 150,48 150,129l-150 0c-198,0 -280,80 -280,195 0,113 91,197 244,197 96,0 163,-31 199,-91l0 82 176 0 0 -372c0,-198 -115,-290 -313,-290zm-15 544c-67,0 -106,-31 -106,-79 0,-43 27,-76 116,-76l129 0 0 67c-21,59 -76,88 -139,88zm856 127c137,0 244,-60 292,-164l-147 -80c-35,63 -87,89 -147,89 -95,0 -170,-66 -170,-180 0,-114 75,-181 170,-181 60,0 112,28 147,90l147 -79c-48,-106 -155,-166 -292,-166 -212,0 -364,140 -364,336 0,196 152,335 364,335zm1065 -333c0,-209 -148,-338 -339,-338 -199,0 -348,141 -348,336 0,194 146,335 372,335 117,0 208,-36 269,-105l-101 -109c-45,42 -94,63 -163,63 -100,0 -169,-50 -187,-131l493 0c1,-16 4,-36 4,-51zm-338 -195c85,0 146,54 160,136l-321 0c13,-84 75,-136 161,-136z"/>
  </g>
 </g>
</svg>
